<svg width="186" height="186" viewBox="0 0 186 186" fill="none" xmlns="http://www.w3.org/2000/svg">
<rect x="1" y="1" width="184" height="184" rx="3" fill="white"/>
<rect x="1" y="1" width="184" height="184" rx="3" stroke="black" stroke-width="2"/>
<g clip-path="url(#clip0_410_1105)">
<path d="M120.989 64.3831C120.837 55.0206 115.617 45.9049 107.541 41.1046C101.178 37.1417 93.1399 36.0751 85.9001 37.9039C75.0038 40.647 66.3168 50.5152 65.2125 61.7625C63.8405 72.385 69.213 83.4327 78.3944 88.8805C87.3859 94.519 99.6158 94.2906 108.407 88.3555C116.332 83.2122 121.247 73.8305 120.981 64.391L120.989 64.3831ZM94.5486 88.8437C81.8235 90.1011 69.5175 79.3194 69.1736 66.5557C68.2111 56.1931 75.0405 45.9442 84.7941 42.5151C98.4721 37.0289 115.274 47.1631 116.684 61.8325C118.894 75.0135 107.921 88.4325 94.5486 88.8437ZM86.1749 63.5825L104.576 48.5325L94.6327 63.6201C91.8134 63.6201 88.9941 63.621 86.1749 63.5825ZM91.3488 66.365L99.8065 66.4035L81.4053 81.4911L91.3488 66.365Z" fill="#010101"/>
</g>
<path d="M52.111 144.38C50.791 144.38 49.6777 144.173 48.771 143.76C47.8643 143.333 47.1777 142.76 46.711 142.04C46.2443 141.307 46.011 140.467 46.011 139.52H49.191C49.191 139.893 49.291 140.24 49.491 140.56C49.7043 140.88 50.0243 141.14 50.451 141.34C50.8777 141.527 51.431 141.62 52.111 141.62C52.7243 141.62 53.2377 141.54 53.651 141.38C54.0643 141.22 54.3777 141 54.591 140.72C54.8043 140.427 54.911 140.093 54.911 139.72C54.911 139.253 54.711 138.887 54.311 138.62C53.911 138.34 53.2643 138.16 52.371 138.08L51.271 137.98C49.8177 137.86 48.6577 137.407 47.791 136.62C46.9243 135.833 46.491 134.793 46.491 133.5C46.491 132.567 46.711 131.76 47.151 131.08C47.6043 130.4 48.231 129.88 49.031 129.52C49.831 129.147 50.7777 128.96 51.871 128.96C53.0177 128.96 53.9977 129.16 54.811 129.56C55.6377 129.947 56.271 130.5 56.711 131.22C57.151 131.927 57.371 132.76 57.371 133.72H54.171C54.171 133.36 54.0843 133.033 53.911 132.74C53.7377 132.433 53.4777 132.187 53.131 132C52.7977 131.813 52.3777 131.72 51.871 131.72C51.391 131.72 50.9843 131.8 50.651 131.96C50.331 132.12 50.091 132.34 49.931 132.62C49.771 132.887 49.691 133.18 49.691 133.5C49.691 133.913 49.8377 134.273 50.131 134.58C50.4243 134.887 50.9043 135.067 51.571 135.12L52.691 135.22C53.7577 135.313 54.6977 135.547 55.511 135.92C56.3243 136.28 56.9577 136.78 57.411 137.42C57.8777 138.047 58.111 138.813 58.111 139.72C58.111 140.653 57.8643 141.473 57.371 142.18C56.891 142.873 56.2043 143.413 55.311 143.8C54.4177 144.187 53.351 144.38 52.111 144.38ZM65.1309 144.38C64.1709 144.38 63.3175 144.233 62.5709 143.94C61.8242 143.633 61.1909 143.22 60.6709 142.7C60.1642 142.18 59.7775 141.587 59.5109 140.92C59.2442 140.24 59.1109 139.527 59.1109 138.78V138.32C59.1109 137.56 59.2442 136.84 59.5109 136.16C59.7909 135.467 60.1909 134.86 60.7109 134.34C61.2442 133.82 61.8842 133.413 62.6309 133.12C63.3775 132.813 64.2109 132.66 65.1309 132.66C66.0775 132.66 66.9175 132.813 67.6509 133.12C68.3975 133.413 69.0309 133.82 69.5509 134.34C70.0709 134.86 70.4709 135.467 70.7509 136.16C71.0309 136.84 71.1709 137.56 71.1709 138.32V138.78C71.1709 139.527 71.0375 140.24 70.7709 140.92C70.5042 141.587 70.1109 142.18 69.5909 142.7C69.0842 143.22 68.4575 143.633 67.7109 143.94C66.9642 144.233 66.1042 144.38 65.1309 144.38ZM65.1309 141.68C65.7575 141.68 66.2775 141.547 66.6909 141.28C67.1042 141.013 67.4175 140.64 67.6309 140.16C67.8575 139.68 67.9709 139.147 67.9709 138.56C67.9709 137.933 67.8575 137.387 67.6309 136.92C67.4042 136.44 67.0775 136.06 66.6509 135.78C66.2375 135.5 65.7309 135.36 65.1309 135.36C64.5442 135.36 64.0375 135.5 63.6109 135.78C63.1842 136.06 62.8575 136.44 62.6309 136.92C62.4175 137.387 62.3109 137.933 62.3109 138.56C62.3109 139.147 62.4175 139.68 62.6309 140.16C62.8442 140.64 63.1642 141.013 63.5909 141.28C64.0175 141.547 64.5309 141.68 65.1309 141.68ZM77.9241 144.38C76.9775 144.38 76.1508 144.227 75.4441 143.92C74.7508 143.6 74.1708 143.173 73.7041 142.64C73.2375 142.107 72.8908 141.507 72.6641 140.84C72.4375 140.16 72.3241 139.46 72.3241 138.74V138.36C72.3241 137.613 72.4441 136.9 72.6841 136.22C72.9241 135.527 73.2775 134.913 73.7441 134.38C74.2108 133.847 74.7908 133.427 75.4841 133.12C76.1908 132.813 76.9975 132.66 77.9041 132.66C78.8908 132.66 79.7641 132.853 80.5241 133.24C81.2841 133.613 81.8908 134.14 82.3441 134.82C82.7975 135.5 83.0508 136.28 83.1041 137.16H79.9641C79.9108 136.667 79.7108 136.253 79.3641 135.92C79.0308 135.573 78.5441 135.4 77.9041 135.4C77.3708 135.4 76.9241 135.533 76.5641 135.8C76.2175 136.067 75.9575 136.433 75.7841 136.9C75.6108 137.367 75.5241 137.92 75.5241 138.56C75.5241 139.147 75.6041 139.68 75.7641 140.16C75.9241 140.627 76.1775 140.993 76.5241 141.26C76.8841 141.513 77.3508 141.64 77.9241 141.64C78.3508 141.64 78.7108 141.567 79.0041 141.42C79.3108 141.26 79.5508 141.047 79.7241 140.78C79.9108 140.5 80.0241 140.18 80.0641 139.82H83.1841C83.1441 140.727 82.8908 141.527 82.4241 142.22C81.9575 142.9 81.3375 143.433 80.5641 143.82C79.7908 144.193 78.9108 144.38 77.9241 144.38ZM92.5507 144L89.0907 138.88H87.5507L92.0107 133.04H95.3707L91.1707 138.48L91.2107 136.92L96.1507 144H92.5507ZM84.8307 144V129.4H88.0307V144H84.8307ZM101.814 144.38C100.881 144.38 100.054 144.22 99.334 143.9C98.6273 143.58 98.034 143.153 97.554 142.62C97.0873 142.073 96.7273 141.467 96.474 140.8C96.234 140.12 96.114 139.427 96.114 138.72V138.32C96.114 137.587 96.234 136.887 96.474 136.22C96.7273 135.54 97.0873 134.933 97.554 134.4C98.0207 133.867 98.6007 133.447 99.294 133.14C100.001 132.82 100.801 132.66 101.694 132.66C102.867 132.66 103.854 132.927 104.654 133.46C105.467 133.98 106.087 134.667 106.514 135.52C106.941 136.36 107.154 137.28 107.154 138.28V139.36H97.454V137.54H105.214L104.174 138.38C104.174 137.727 104.081 137.167 103.894 136.7C103.707 136.233 103.427 135.88 103.054 135.64C102.694 135.387 102.241 135.26 101.694 135.26C101.134 135.26 100.661 135.387 100.274 135.64C99.8873 135.893 99.594 136.267 99.394 136.76C99.194 137.24 99.094 137.833 99.094 138.54C99.094 139.193 99.1873 139.767 99.374 140.26C99.5607 140.74 99.854 141.113 100.254 141.38C100.654 141.647 101.174 141.78 101.814 141.78C102.401 141.78 102.881 141.667 103.254 141.44C103.627 141.213 103.881 140.933 104.014 140.6H106.954C106.794 141.333 106.481 141.987 106.014 142.56C105.547 143.133 104.961 143.58 104.254 143.9C103.547 144.22 102.734 144.38 101.814 144.38ZM113.854 144.14C112.748 144.14 111.854 144.007 111.174 143.74C110.494 143.46 109.994 143 109.674 142.36C109.368 141.707 109.214 140.827 109.214 139.72V130.08H112.194V139.84C112.194 140.36 112.328 140.76 112.594 141.04C112.874 141.307 113.268 141.44 113.774 141.44H115.394V144.14H113.854ZM107.554 135.38V133.04H115.394V135.38H107.554ZM116.646 144V140.42H120.166V144H116.646ZM122.435 144V129.4H125.715V144H122.435ZM133.796 144.38C132.836 144.38 131.982 144.233 131.236 143.94C130.489 143.633 129.856 143.22 129.336 142.7C128.829 142.18 128.442 141.587 128.176 140.92C127.909 140.24 127.776 139.527 127.776 138.78V138.32C127.776 137.56 127.909 136.84 128.176 136.16C128.456 135.467 128.856 134.86 129.376 134.34C129.909 133.82 130.549 133.413 131.296 133.12C132.042 132.813 132.876 132.66 133.796 132.66C134.742 132.66 135.582 132.813 136.316 133.12C137.062 133.413 137.696 133.82 138.216 134.34C138.736 134.86 139.136 135.467 139.416 136.16C139.696 136.84 139.836 137.56 139.836 138.32V138.78C139.836 139.527 139.702 140.24 139.436 140.92C139.169 141.587 138.776 142.18 138.256 142.7C137.749 143.22 137.122 143.633 136.376 143.94C135.629 144.233 134.769 144.38 133.796 144.38ZM133.796 141.68C134.422 141.68 134.942 141.547 135.356 141.28C135.769 141.013 136.082 140.64 136.296 140.16C136.522 139.68 136.636 139.147 136.636 138.56C136.636 137.933 136.522 137.387 136.296 136.92C136.069 136.44 135.742 136.06 135.316 135.78C134.902 135.5 134.396 135.36 133.796 135.36C133.209 135.36 132.702 135.5 132.276 135.78C131.849 136.06 131.522 136.44 131.296 136.92C131.082 137.387 130.976 137.933 130.976 138.56C130.976 139.147 131.082 139.68 131.296 140.16C131.509 140.64 131.829 141.013 132.256 141.28C132.682 141.547 133.196 141.68 133.796 141.68Z" fill="black"/>
<defs>
<clipPath id="clip0_410_1105">
<rect width="56" height="56" fill="white" transform="translate(65 37)"/>
</clipPath>
</defs>
</svg>
