<svg width="186" height="186" viewBox="0 0 186 186" fill="none" xmlns="http://www.w3.org/2000/svg">
<rect x="1" y="1" width="184" height="184" rx="3" fill="white"/>
<rect x="1" y="1" width="184" height="184" rx="3" stroke="black" stroke-width="2"/>
<path fill-rule="evenodd" clip-rule="evenodd" d="M74.8548 85.6535L73.3358 45.204C73.288 43.8682 74.3147 42.7377 75.6482 42.656L102.608 40.9702L104.667 41.6667L107.344 40.6739L110.046 40.5047C111.403 40.4184 112.573 41.4485 112.661 42.8054C112.664 42.8579 112.665 42.9115 112.665 42.9652V87.0384C112.664 88.3999 111.559 89.5024 110.198 89.5012C110.162 89.5012 110.125 89.5 110.09 89.4989L77.2068 88.0219C75.9258 87.9647 74.9038 86.9357 74.8548 85.6535Z" fill="black"/>
<path fill-rule="evenodd" clip-rule="evenodd" d="M107.342 40.6738L102.609 40.9678L102.379 46.5223C102.371 46.7253 102.528 46.8957 102.731 46.905C102.816 46.9085 102.899 46.8828 102.967 46.8315L105.123 45.1947L106.945 46.6308C107.104 46.7568 107.336 46.73 107.461 46.5713C107.515 46.5025 107.543 46.4173 107.54 46.3298L107.344 40.675L107.342 40.6738ZM103.658 59.2693C102.793 59.9425 96.3344 60.401 96.3344 59.4432C96.4721 55.7857 94.8353 55.6258 93.9241 55.6258C93.0619 55.6258 91.6059 55.886 91.6059 57.846C91.6059 59.8422 93.7328 60.9692 96.2294 62.2922C99.7749 64.1717 104.069 66.4478 104.069 72.1703C104.069 77.6583 99.6104 80.687 93.9264 80.687C88.0593 80.687 82.9306 78.3128 83.5093 70.0832C83.7368 69.1183 91.1976 69.3482 91.1976 70.0832C91.1043 73.4793 91.8789 74.478 93.8343 74.478C95.3358 74.478 96.0171 73.6497 96.0171 72.2578C96.0171 70.1485 93.8028 68.9037 91.2524 67.4733C87.8003 65.5355 83.7379 63.2547 83.7379 58.0187C83.7379 52.7955 87.3301 49.3118 93.7433 49.3118C100.156 49.3118 103.658 52.743 103.658 59.2693Z" fill="white"/>
<path d="M46.4274 144.38C45.1074 144.38 43.9941 144.173 43.0874 143.76C42.1808 143.333 41.4941 142.76 41.0274 142.04C40.5608 141.307 40.3274 140.467 40.3274 139.52H43.5074C43.5074 139.893 43.6074 140.24 43.8074 140.56C44.0208 140.88 44.3408 141.14 44.7674 141.34C45.1941 141.527 45.7474 141.62 46.4274 141.62C47.0408 141.62 47.5541 141.54 47.9674 141.38C48.3808 141.22 48.6941 141 48.9074 140.72C49.1208 140.427 49.2274 140.093 49.2274 139.72C49.2274 139.253 49.0274 138.887 48.6274 138.62C48.2274 138.34 47.5808 138.16 46.6874 138.08L45.5874 137.98C44.1341 137.86 42.9741 137.407 42.1074 136.62C41.2408 135.833 40.8074 134.793 40.8074 133.5C40.8074 132.567 41.0274 131.76 41.4674 131.08C41.9208 130.4 42.5474 129.88 43.3474 129.52C44.1474 129.147 45.0941 128.96 46.1874 128.96C47.3341 128.96 48.3141 129.16 49.1274 129.56C49.9541 129.947 50.5874 130.5 51.0274 131.22C51.4674 131.927 51.6874 132.76 51.6874 133.72H48.4874C48.4874 133.36 48.4008 133.033 48.2274 132.74C48.0541 132.433 47.7941 132.187 47.4474 132C47.1141 131.813 46.6941 131.72 46.1874 131.72C45.7074 131.72 45.3008 131.8 44.9674 131.96C44.6474 132.12 44.4074 132.34 44.2474 132.62C44.0874 132.887 44.0074 133.18 44.0074 133.5C44.0074 133.913 44.1541 134.273 44.4474 134.58C44.7408 134.887 45.2208 135.067 45.8874 135.12L47.0074 135.22C48.0741 135.313 49.0141 135.547 49.8274 135.92C50.6408 136.28 51.2741 136.78 51.7274 137.42C52.1941 138.047 52.4274 138.813 52.4274 139.72C52.4274 140.653 52.1808 141.473 51.6874 142.18C51.2074 142.873 50.5208 143.413 49.6274 143.8C48.7341 144.187 47.6674 144.38 46.4274 144.38ZM59.0873 144.14C57.9806 144.14 57.0873 144.007 56.4073 143.74C55.7273 143.46 55.2273 143 54.9073 142.36C54.6006 141.707 54.4473 140.827 54.4473 139.72V130.08H57.4273V139.84C57.4273 140.36 57.5606 140.76 57.8273 141.04C58.1073 141.307 58.5006 141.44 59.0073 141.44H60.6273V144.14H59.0873ZM52.7873 135.38V133.04H60.6273V135.38H52.7873ZM67.6801 144.38C66.7201 144.38 65.8667 144.233 65.1201 143.94C64.3734 143.633 63.7401 143.22 63.2201 142.7C62.7134 142.18 62.3267 141.587 62.0601 140.92C61.7934 140.24 61.6601 139.527 61.6601 138.78V138.32C61.6601 137.56 61.7934 136.84 62.0601 136.16C62.3401 135.467 62.7401 134.86 63.2601 134.34C63.7934 133.82 64.4334 133.413 65.1801 133.12C65.9267 132.813 66.7601 132.66 67.6801 132.66C68.6267 132.66 69.4667 132.813 70.2001 133.12C70.9467 133.413 71.5801 133.82 72.1001 134.34C72.6201 134.86 73.0201 135.467 73.3001 136.16C73.5801 136.84 73.7201 137.56 73.7201 138.32V138.78C73.7201 139.527 73.5867 140.24 73.3201 140.92C73.0534 141.587 72.6601 142.18 72.1401 142.7C71.6334 143.22 71.0067 143.633 70.2601 143.94C69.5134 144.233 68.6534 144.38 67.6801 144.38ZM67.6801 141.68C68.3067 141.68 68.8267 141.547 69.2401 141.28C69.6534 141.013 69.9667 140.64 70.1801 140.16C70.4067 139.68 70.5201 139.147 70.5201 138.56C70.5201 137.933 70.4067 137.387 70.1801 136.92C69.9534 136.44 69.6267 136.06 69.2001 135.78C68.7867 135.5 68.2801 135.36 67.6801 135.36C67.0934 135.36 66.5867 135.5 66.1601 135.78C65.7334 136.06 65.4067 136.44 65.1801 136.92C64.9667 137.387 64.8601 137.933 64.8601 138.56C64.8601 139.147 64.9667 139.68 65.1801 140.16C65.3934 140.64 65.7134 141.013 66.1401 141.28C66.5667 141.547 67.0801 141.68 67.6801 141.68ZM75.5534 144V133.04H78.0934V137.74H78.0334C78.0334 136.193 78.36 135 79.0134 134.16C79.68 133.32 80.64 132.9 81.8934 132.9H82.3134V135.66H81.5134C80.6334 135.66 79.9534 135.9 79.4734 136.38C78.9934 136.847 78.7534 137.527 78.7534 138.42V144H75.5534ZM83.7638 148.34V145.62H86.0438C86.3905 145.62 86.6838 145.573 86.9238 145.48C87.1638 145.4 87.3572 145.26 87.5038 145.06C87.6505 144.86 87.7705 144.587 87.8638 144.24L90.5638 133.04H93.6038L90.5438 144.88C90.3305 145.733 90.0305 146.413 89.6438 146.92C89.2705 147.427 88.7638 147.787 88.1238 148C87.4972 148.227 86.6972 148.34 85.7238 148.34H83.7638ZM87.2038 143.76V141.26H89.5238V143.76H87.2038ZM85.8838 143.76L82.5238 133.04H85.7438L88.9238 143.76H85.8838ZM101.63 144.36C100.737 144.36 99.9501 144.173 99.2701 143.8C98.5901 143.413 98.0567 142.86 97.6701 142.14C97.2834 141.42 97.0767 140.54 97.0501 139.5H97.4301V144H94.8901V129.4H98.0901V136.82L97.3301 137.78C97.3701 136.673 97.5767 135.747 97.9501 135C98.3367 134.24 98.8634 133.673 99.5301 133.3C100.197 132.913 100.957 132.72 101.81 132.72C102.557 132.72 103.23 132.86 103.83 133.14C104.443 133.407 104.963 133.793 105.39 134.3C105.817 134.793 106.143 135.38 106.37 136.06C106.61 136.74 106.73 137.48 106.73 138.28V138.72C106.73 139.52 106.61 140.26 106.37 140.94C106.143 141.62 105.803 142.22 105.35 142.74C104.91 143.247 104.377 143.647 103.75 143.94C103.123 144.22 102.417 144.36 101.63 144.36ZM100.79 141.68C101.337 141.68 101.81 141.547 102.21 141.28C102.623 141.013 102.943 140.64 103.17 140.16C103.397 139.667 103.51 139.113 103.51 138.5C103.51 137.873 103.397 137.327 103.17 136.86C102.943 136.393 102.623 136.033 102.21 135.78C101.81 135.513 101.337 135.38 100.79 135.38C100.31 135.38 99.8567 135.493 99.4301 135.72C99.0034 135.947 98.6567 136.273 98.3901 136.7C98.1367 137.113 98.0101 137.62 98.0101 138.22V138.96C98.0101 139.533 98.1434 140.027 98.4101 140.44C98.6901 140.84 99.0434 141.147 99.4701 141.36C99.8967 141.573 100.337 141.68 100.79 141.68ZM113.893 144.38C112.933 144.38 112.079 144.233 111.333 143.94C110.586 143.633 109.953 143.22 109.433 142.7C108.926 142.18 108.539 141.587 108.273 140.92C108.006 140.24 107.873 139.527 107.873 138.78V138.32C107.873 137.56 108.006 136.84 108.273 136.16C108.553 135.467 108.953 134.86 109.473 134.34C110.006 133.82 110.646 133.413 111.393 133.12C112.139 132.813 112.973 132.66 113.893 132.66C114.839 132.66 115.679 132.813 116.413 133.12C117.159 133.413 117.793 133.82 118.313 134.34C118.833 134.86 119.233 135.467 119.513 136.16C119.793 136.84 119.933 137.56 119.933 138.32V138.78C119.933 139.527 119.799 140.24 119.533 140.92C119.266 141.587 118.873 142.18 118.353 142.7C117.846 143.22 117.219 143.633 116.473 143.94C115.726 144.233 114.866 144.38 113.893 144.38ZM113.893 141.68C114.519 141.68 115.039 141.547 115.453 141.28C115.866 141.013 116.179 140.64 116.393 140.16C116.619 139.68 116.733 139.147 116.733 138.56C116.733 137.933 116.619 137.387 116.393 136.92C116.166 136.44 115.839 136.06 115.413 135.78C114.999 135.5 114.493 135.36 113.893 135.36C113.306 135.36 112.799 135.5 112.373 135.78C111.946 136.06 111.619 136.44 111.393 136.92C111.179 137.387 111.073 137.933 111.073 138.56C111.073 139.147 111.179 139.68 111.393 140.16C111.606 140.64 111.926 141.013 112.353 141.28C112.779 141.547 113.293 141.68 113.893 141.68ZM127.106 144.38C126.146 144.38 125.293 144.233 124.546 143.94C123.799 143.633 123.166 143.22 122.646 142.7C122.139 142.18 121.753 141.587 121.486 140.92C121.219 140.24 121.086 139.527 121.086 138.78V138.32C121.086 137.56 121.219 136.84 121.486 136.16C121.766 135.467 122.166 134.86 122.686 134.34C123.219 133.82 123.859 133.413 124.606 133.12C125.353 132.813 126.186 132.66 127.106 132.66C128.053 132.66 128.893 132.813 129.626 133.12C130.373 133.413 131.006 133.82 131.526 134.34C132.046 134.86 132.446 135.467 132.726 136.16C133.006 136.84 133.146 137.56 133.146 138.32V138.78C133.146 139.527 133.013 140.24 132.746 140.92C132.479 141.587 132.086 142.18 131.566 142.7C131.059 143.22 130.433 143.633 129.686 143.94C128.939 144.233 128.079 144.38 127.106 144.38ZM127.106 141.68C127.733 141.68 128.253 141.547 128.666 141.28C129.079 141.013 129.393 140.64 129.606 140.16C129.833 139.68 129.946 139.147 129.946 138.56C129.946 137.933 129.833 137.387 129.606 136.92C129.379 136.44 129.053 136.06 128.626 135.78C128.213 135.5 127.706 135.36 127.106 135.36C126.519 135.36 126.013 135.5 125.586 135.78C125.159 136.06 124.833 136.44 124.606 136.92C124.393 137.387 124.286 137.933 124.286 138.56C124.286 139.147 124.393 139.68 124.606 140.16C124.819 140.64 125.139 141.013 125.566 141.28C125.993 141.547 126.506 141.68 127.106 141.68ZM142.699 144L139.239 138.88H137.699L142.159 133.04H145.519L141.319 138.48L141.359 136.92L146.299 144H142.699ZM134.979 144V129.4H138.179V144H134.979Z" fill="black"/>
</svg>
