<svg width="186" height="186" viewBox="0 0 186 186" fill="none" xmlns="http://www.w3.org/2000/svg">
<rect x="1" y="1" width="184" height="184" rx="3" fill="white"/>
<rect x="1" y="1" width="184" height="184" rx="3" stroke="black" stroke-width="2"/>
<path fill-rule="evenodd" clip-rule="evenodd" d="M97.4546 37.929C97.0717 37.929 96.7161 38.014 96.3878 38.1272C97.0853 38.6086 97.4683 39.2457 97.6598 39.9678C97.6735 40.0669 97.7008 40.1377 97.7145 40.2368C97.7282 40.3218 97.7418 40.4067 97.7418 40.4917C97.7966 41.7376 97.4273 41.8934 97.1674 42.6296C96.7708 43.5782 96.8802 44.5976 97.3589 45.4188C97.3999 45.5179 97.4546 45.6312 97.523 45.7303C97.0033 42.1482 99.8891 41.6102 100.423 40.4917C100.464 39.5148 99.684 38.8635 99.0685 38.4104C98.4804 38.0423 97.947 37.929 97.4546 37.929ZM101.804 38.736C101.749 39.0617 101.79 38.9767 101.777 39.1466C101.763 39.2599 101.763 39.4015 101.749 39.5148C101.722 39.628 101.694 39.7413 101.653 39.8546C101.626 39.9678 101.585 40.0811 101.544 40.1944C101.489 40.3076 101.448 40.4067 101.394 40.52C101.353 40.5767 101.325 40.6333 101.284 40.6899C101.257 40.7324 101.229 40.7748 101.202 40.8173C101.134 40.9164 101.065 41.0155 100.997 41.1005C100.915 41.1854 100.847 41.2845 100.751 41.3553V41.3695C100.669 41.4403 100.587 41.5253 100.491 41.596C100.204 41.8226 99.8755 41.9925 99.5746 42.2049C99.4788 42.2756 99.3831 42.3323 99.301 42.4172C99.2053 42.488 99.1232 42.5588 99.0412 42.6438C98.9454 42.7287 98.8771 42.8137 98.795 42.9128C98.7266 42.9977 98.6446 43.0968 98.5898 43.1959C98.5215 43.295 98.4531 43.3942 98.3984 43.4933C98.3436 43.6065 98.3026 43.7056 98.2479 43.8189C98.2069 43.9322 98.1659 44.0313 98.1385 44.1445C98.0975 44.272 98.0701 44.3852 98.0428 44.4985C98.0291 44.5552 98.0291 44.6259 98.0154 44.6826C98.0017 44.7392 98.0017 44.7958 97.9881 44.8525C97.9881 44.9657 97.9744 45.0932 97.9744 45.2064C97.9744 45.2914 97.9744 45.3763 97.9881 45.4613C97.9881 45.5745 98.0018 45.6878 98.0291 45.8152C98.0428 45.9285 98.0702 46.0418 98.0975 46.155C98.1385 46.2683 98.1659 46.3816 98.2069 46.4948C98.2343 46.5656 98.2753 46.6364 98.3027 46.693L95.157 45.433C94.6236 45.2772 94.1038 45.1356 93.5704 45.0082C93.2832 44.9374 92.996 44.8666 92.7088 44.7958C91.8882 44.6259 91.0539 44.4985 90.2196 44.4136C90.1923 44.4136 90.1786 44.3994 90.1512 44.3994C89.3306 44.3144 88.5236 44.272 87.703 44.272C87.1012 44.272 86.4994 44.3003 85.9113 44.3428C85.077 44.3994 84.2427 44.5127 83.4085 44.6542C83.2033 44.6825 82.9981 44.725 82.793 44.7675C82.369 44.8524 81.9587 44.9516 81.5621 45.0507C81.3569 45.1073 81.1518 45.1639 80.9466 45.2206C80.7414 45.3055 80.55 45.4046 80.3585 45.4896C80.208 45.5604 80.0576 45.6312 79.9072 45.702C79.8798 45.7161 79.8524 45.7161 79.8388 45.7302C79.702 45.801 79.5789 45.8577 79.4558 45.9285C79.4148 45.9426 79.3874 45.9568 79.3601 45.9709C79.2096 46.0417 79.0592 46.1267 78.9361 46.1975C78.8403 46.2399 78.7446 46.2966 78.6625 46.3391C78.6215 46.3674 78.5668 46.3957 78.5395 46.4099C78.4164 46.4806 78.2933 46.5514 78.1839 46.6222C78.0608 46.693 77.9513 46.7638 77.8556 46.8346C77.7599 46.9054 77.6641 46.962 77.5821 47.0328C77.5684 47.047 77.5547 47.047 77.541 47.0611C77.459 47.1178 77.3632 47.1885 77.2812 47.2593C77.2812 47.2593 77.2675 47.2735 77.2538 47.2876C77.1855 47.3443 77.1171 47.4009 77.0487 47.4575C77.0214 47.4717 76.994 47.5 76.9666 47.5142C76.8982 47.5708 76.8299 47.6416 76.7615 47.6982C76.7478 47.7265 76.7204 47.7407 76.7067 47.7549C76.6247 47.8398 76.5426 47.9106 76.4606 47.9956C76.4469 47.9956 76.4469 48.0098 76.4332 48.0239C76.3512 48.0947 76.2691 48.1796 76.187 48.2646C76.1733 48.2787 76.1733 48.2929 76.1597 48.2929C76.0913 48.3637 76.0229 48.4345 75.9545 48.5194C75.9272 48.5477 75.8862 48.5761 75.8588 48.6043C75.7904 48.6893 75.7084 48.7742 75.6263 48.8592C75.6126 48.8875 75.5853 48.9017 75.5716 48.93C75.4622 49.0433 75.3664 49.1565 75.257 49.2698C75.2433 49.284 75.2297 49.2981 75.216 49.3123C74.9971 49.553 74.7646 49.7936 74.5185 50.006C74.2723 50.2326 74.0124 50.4449 73.7525 50.629C73.479 50.8272 73.2191 50.9971 72.9319 51.167C72.6584 51.3227 72.3712 51.4643 72.0703 51.5918C71.7831 51.7192 71.4822 51.8325 71.1813 51.9316C70.6068 52.059 70.0187 52.2997 69.5127 52.3421C69.4033 52.3421 69.2802 52.3704 69.1708 52.3846C69.0477 52.4129 68.9382 52.4413 68.8288 52.4696C68.7194 52.512 68.61 52.5545 68.5006 52.597C68.3912 52.6395 68.2818 52.6961 68.1723 52.7527C68.0766 52.8235 67.9672 52.8802 67.8714 52.951C67.7757 53.0217 67.68 53.1067 67.5979 53.1916C67.5022 53.2624 67.4064 53.3616 67.3244 53.4465C67.2423 53.5456 67.1602 53.6306 67.0919 53.7297C67.0235 53.8429 66.9414 53.942 66.8867 54.0553C66.8183 54.1544 66.7499 54.2677 66.6952 54.3809C66.6405 54.5084 66.5858 54.6216 66.5448 54.7491C66.5037 54.8623 66.4627 54.9898 66.4217 55.1172C66.3944 55.2305 66.367 55.3437 66.3533 55.457C66.3533 55.4712 66.3396 55.4853 66.3396 55.4995C66.3123 55.6269 66.3123 55.7968 66.2986 55.8817C66.2849 55.9809 66.2712 56.0658 66.2712 56.1649C66.2712 56.2216 66.2712 56.2923 66.2849 56.349C66.2986 56.4481 66.3123 56.533 66.3397 56.618C66.367 56.7029 66.3944 56.7879 66.4354 56.8728V56.887C66.4764 56.972 66.5311 57.0569 66.5858 57.1419C66.6406 57.2268 66.6953 57.3118 66.7637 57.3967C66.832 57.4675 66.9141 57.5524 66.9962 57.6232C67.0782 57.7082 67.1603 57.779 67.256 57.8498C67.5843 58.1471 67.6663 58.2462 68.0903 58.4727C68.1587 58.5152 68.2271 58.5435 68.3092 58.586C68.3229 58.586 68.3365 58.6002 68.3502 58.6002C68.3502 58.6285 68.3502 58.6427 68.3639 58.671C68.3776 58.7843 68.4049 58.8975 68.4323 59.0108C68.4596 59.1382 68.5007 59.2515 68.5417 59.3506C68.5827 59.4355 68.6101 59.5205 68.6511 59.6054C68.6648 59.6337 68.6784 59.6621 68.6921 59.6762C68.7469 59.7895 68.8015 59.8886 68.8563 59.9877C68.9246 60.0868 68.993 60.1859 69.0614 60.285C69.1298 60.37 69.2119 60.4691 69.2939 60.554C69.376 60.639 69.458 60.7098 69.5538 60.7947C69.5538 60.7947 69.5675 60.8089 69.5811 60.8089C69.6632 60.8797 69.7452 60.9505 69.8273 61.0071C69.923 61.0779 70.0188 61.1346 70.1282 61.1912C70.2239 61.2479 70.3333 61.3045 70.4428 61.3469C70.5248 61.3894 70.6206 61.4177 70.7163 61.4461C70.73 61.4603 70.7436 61.4603 70.771 61.4744C70.8258 61.4886 70.8941 61.5026 70.9488 61.5168C70.9078 62.2814 70.8941 63.0034 71.0036 63.2583C71.1266 63.5415 71.7284 62.6778 72.3302 61.6867C72.2482 62.6637 72.1935 63.8105 72.3302 64.1503C72.4807 64.5042 73.3013 63.3999 74.0125 62.1823C83.7095 59.8603 92.5585 66.7979 93.4885 76.5955C93.3107 75.0664 91.4916 74.2169 90.6574 74.4292C90.247 75.477 89.5495 76.822 88.428 77.6573C88.5238 76.7229 88.4827 75.7601 88.2912 74.8257C87.9904 76.1282 87.4022 77.3459 86.5953 78.3936C85.296 78.4927 83.9967 77.8414 83.3128 76.8645C83.2581 76.822 83.2444 76.737 83.2034 76.6804C83.1624 76.5813 83.1213 76.4822 83.094 76.3831C83.053 76.284 83.0256 76.1849 83.0119 76.0858C82.9982 75.9867 82.9982 75.8875 82.9982 75.7743C82.9982 75.7035 82.9982 75.6327 82.9982 75.5619C83.0119 75.4628 83.0393 75.3637 83.0666 75.2646C83.0939 75.1655 83.1213 75.0664 83.1624 74.9673C83.2171 74.8681 83.2581 74.769 83.3265 74.6699C83.559 73.9903 83.559 73.4382 83.135 73.1125C83.0529 73.0559 82.9709 73.0134 82.8751 72.9709C82.8204 72.9567 82.752 72.9284 82.6973 72.9143C82.6563 72.9001 82.629 72.886 82.5879 72.8718C82.4922 72.8435 82.3964 72.8151 82.3007 72.801C82.205 72.7727 82.1092 72.7585 82.0135 72.7585C81.9178 72.7443 81.8083 72.7302 81.7126 72.7302C81.6442 72.7302 81.5758 72.7444 81.5074 72.7444C81.398 72.7444 81.3023 72.7586 81.2065 72.7869C81.1108 72.8011 81.0151 72.8152 80.9193 72.8435C80.8236 72.8718 80.7279 72.9002 80.6321 72.9426C80.5364 72.9851 80.4543 73.0276 80.3586 73.0701C80.2765 73.1126 80.1945 73.1692 80.0987 73.2117C76.912 75.3637 78.8131 80.4041 80.9877 81.8624C80.1671 82.0181 79.3328 82.2022 79.1003 82.3863C79.0866 82.4004 79.073 82.4146 79.073 82.4146C79.6611 82.7827 80.2765 83.0942 80.9193 83.3632C81.7947 83.6605 82.7247 83.9295 83.135 84.0428V84.0569C84.2702 84.2976 85.4191 84.3826 86.5816 84.3118C92.6405 83.8729 97.6053 79.1015 98.5079 72.8152C98.5353 72.9426 98.5627 73.0559 98.59 73.1833C98.631 73.4382 98.6857 73.7072 98.7131 73.9762V73.9904C98.7404 74.1178 98.7541 74.2452 98.7678 74.3585V74.4152C98.7815 74.5426 98.7951 74.67 98.7951 74.7833C98.8088 74.939 98.8225 75.0948 98.8225 75.2505V75.477C98.8225 75.5478 98.8362 75.6328 98.8362 75.7036C98.8362 75.7885 98.8225 75.8735 98.8225 75.9584V76.1566C98.8225 76.2558 98.8088 76.3407 98.8088 76.4398C98.8088 76.4965 98.8088 76.5531 98.7951 76.6239C98.7951 76.723 98.7814 76.8221 98.7814 76.9354C98.7677 76.9778 98.7677 77.0203 98.7677 77.0628C98.754 77.1761 98.7403 77.2752 98.7266 77.3884C98.7266 77.4309 98.7266 77.4734 98.7129 77.5159C98.6992 77.6574 98.6719 77.7849 98.6582 77.9264V77.9406V77.9548C98.6309 78.0822 98.6035 78.2238 98.5761 78.3512V78.3937C98.5488 78.5211 98.5214 78.6486 98.4941 78.776C98.4941 78.7902 98.4804 78.8185 98.4804 78.8326C98.4531 78.9601 98.4257 79.0875 98.3847 79.2149V79.2574C98.3436 79.399 98.3026 79.5264 98.2752 79.6538C98.2615 79.668 98.2615 79.6821 98.2615 79.6821C98.2205 79.8237 98.1795 79.9653 98.1385 80.1069C98.0837 80.2485 98.0427 80.3759 97.988 80.5175C97.9333 80.6591 97.8923 80.8006 97.8376 80.9281C97.7828 81.0697 97.7281 81.1971 97.6734 81.3387H97.6597C97.605 81.4661 97.5503 81.6077 97.4819 81.7351C97.4682 81.7776 97.4546 81.8059 97.4409 81.8342C97.4272 81.8484 97.4272 81.8625 97.4136 81.8767C96.5246 83.7314 95.2116 85.3596 93.5703 86.6339C93.4609 86.7047 93.3515 86.7896 93.2421 86.8746C93.2147 86.9029 93.1737 86.917 93.1463 86.9454C93.0506 87.0161 92.9549 87.0869 92.8455 87.1577L92.8865 87.2427H92.9002C93.0916 87.2144 93.2831 87.186 93.4746 87.1577H93.4883C93.8439 87.1011 94.1995 87.0303 94.5551 86.9595C94.6508 86.9453 94.7603 86.917 94.856 86.8887C94.9244 86.8745 94.9791 86.8604 95.0475 86.8462C95.1432 86.8321 95.239 86.8038 95.3347 86.7896C95.4168 86.7613 95.4988 86.7471 95.5809 86.7188C96.9486 86.379 98.2752 85.9118 99.5472 85.3596C97.3726 88.432 94.4594 90.9097 91.0538 92.5379C92.6267 92.4246 94.1995 92.1556 95.7176 91.7025C101.229 90.0177 105.866 86.1808 108.642 81.013C108.082 84.2836 106.823 87.3984 104.963 90.1168C106.29 89.2107 107.507 88.1629 108.615 86.9736C111.679 83.6606 113.689 79.4556 114.373 74.9391C114.838 77.1761 114.975 79.4839 114.77 81.7634C124.644 67.5059 115.59 52.7246 111.802 48.8311C111.788 48.8028 111.774 48.7886 111.774 48.7603C111.761 48.7745 111.761 48.7745 111.761 48.7886C111.761 48.7744 111.761 48.7744 111.747 48.7603C111.747 48.9302 111.733 49.1001 111.72 49.27C111.679 49.5956 111.638 49.9071 111.583 50.2186C111.515 50.5301 111.432 50.8415 111.35 51.153C111.255 51.4504 111.145 51.7618 111.022 52.0592C110.899 52.3423 110.762 52.6397 110.612 52.9228C110.461 53.1918 110.297 53.475 110.119 53.7299C109.942 53.9989 109.75 54.2537 109.559 54.4944C109.354 54.7493 109.135 54.9758 108.916 55.2023C108.779 55.3297 108.656 55.443 108.519 55.5563C108.41 55.6554 108.314 55.7403 108.205 55.8394C107.959 56.0377 107.712 56.2217 107.439 56.3916C107.179 56.5615 106.905 56.7314 106.632 56.873C106.345 57.0146 106.057 57.142 105.77 57.2694C105.483 57.3827 105.182 57.4818 104.881 57.5668C104.58 57.6517 104.266 57.7225 103.965 57.7791C103.65 57.8358 103.336 57.8641 103.035 57.8924C102.816 57.9066 102.597 57.9207 102.378 57.9207C102.064 57.9207 101.749 57.8924 101.448 57.864C101.134 57.8358 100.819 57.7933 100.518 57.7225C100.204 57.6658 99.9028 57.5809 99.6019 57.4818H99.5882C99.8891 57.4535 100.19 57.4251 100.491 57.3685C100.805 57.3118 101.106 57.2411 101.407 57.1561C101.708 57.0712 102.009 56.9721 102.296 56.8588C102.597 56.7455 102.884 56.604 103.158 56.4624C103.445 56.3208 103.705 56.165 103.979 55.9951C104.238 55.8111 104.498 55.627 104.744 55.4288C104.991 55.2306 105.223 55.0182 105.442 54.7917C105.674 54.5793 105.88 54.3386 106.085 54.0979C106.29 53.8431 106.481 53.5882 106.659 53.3334C106.687 53.2909 106.714 53.2343 106.741 53.1918C106.878 52.9653 107.015 52.7387 107.138 52.5122C107.288 52.229 107.425 51.9459 107.548 51.6485C107.671 51.3512 107.781 51.0539 107.876 50.7424C107.972 50.4451 108.041 50.1336 108.109 49.8221C108.164 49.4965 108.218 49.185 108.246 48.8735C108.273 48.5479 108.3 48.2222 108.3 47.9107C108.3 47.6842 108.287 47.4577 108.273 47.2311C108.246 46.9055 108.205 46.594 108.164 46.2825C108.109 45.9569 108.041 45.6454 107.959 45.3339C107.863 45.0366 107.767 44.7251 107.658 44.4278C107.548 44.1304 107.411 43.8331 107.275 43.55C107.124 43.2668 106.974 42.9836 106.81 42.7146C106.632 42.4456 106.454 42.1908 106.263 41.9359C106.057 41.6952 105.852 41.4545 105.633 41.2138C105.524 41.1006 105.401 40.9731 105.278 40.8599C104.662 40.3643 104.02 39.8971 103.377 39.4724C103.281 39.4157 103.199 39.3732 103.103 39.3308C102.652 39.0334 102.228 38.8776 101.804 38.736Z" fill="black"/>
<path d="M56.2306 144V129.4H61.6106L67.1106 141.34H67.7906L67.3906 141.7V129.4H70.4706V144H65.0506L59.5506 132.06H58.8706L59.2706 131.7V144H56.2306ZM78.1902 144.38C77.2568 144.38 76.4302 144.22 75.7102 143.9C75.0035 143.58 74.4102 143.153 73.9302 142.62C73.4635 142.073 73.1035 141.467 72.8502 140.8C72.6102 140.12 72.4902 139.427 72.4902 138.72V138.32C72.4902 137.587 72.6102 136.887 72.8502 136.22C73.1035 135.54 73.4635 134.933 73.9302 134.4C74.3968 133.867 74.9768 133.447 75.6702 133.14C76.3768 132.82 77.1768 132.66 78.0702 132.66C79.2435 132.66 80.2302 132.927 81.0302 133.46C81.8435 133.98 82.4635 134.667 82.8902 135.52C83.3168 136.36 83.5302 137.28 83.5302 138.28V139.36H73.8302V137.54H81.5902L80.5502 138.38C80.5502 137.727 80.4568 137.167 80.2702 136.7C80.0835 136.233 79.8035 135.88 79.4302 135.64C79.0702 135.387 78.6168 135.26 78.0702 135.26C77.5102 135.26 77.0368 135.387 76.6502 135.64C76.2635 135.893 75.9702 136.267 75.7702 136.76C75.5702 137.24 75.4702 137.833 75.4702 138.54C75.4702 139.193 75.5635 139.767 75.7502 140.26C75.9368 140.74 76.2302 141.113 76.6302 141.38C77.0302 141.647 77.5502 141.78 78.1902 141.78C78.7768 141.78 79.2568 141.667 79.6302 141.44C80.0035 141.213 80.2568 140.933 80.3902 140.6H83.3302C83.1702 141.333 82.8568 141.987 82.3902 142.56C81.9235 143.133 81.3368 143.58 80.6302 143.9C79.9235 144.22 79.1102 144.38 78.1902 144.38ZM89.4106 144.34C87.8506 144.34 86.6306 144.02 85.7506 143.38C84.8706 142.74 84.404 141.84 84.3506 140.68H87.1906C87.244 141.027 87.4506 141.34 87.8106 141.62C88.184 141.887 88.7373 142.02 89.4706 142.02C90.0306 142.02 90.4906 141.927 90.8506 141.74C91.224 141.54 91.4106 141.26 91.4106 140.9C91.4106 140.58 91.2706 140.327 90.9906 140.14C90.7106 139.94 90.2106 139.8 89.4906 139.72L88.6306 139.64C87.3106 139.507 86.3173 139.14 85.6506 138.54C84.9973 137.94 84.6706 137.173 84.6706 136.24C84.6706 135.467 84.864 134.82 85.2506 134.3C85.6373 133.78 86.1706 133.387 86.8506 133.12C87.544 132.853 88.3306 132.72 89.2106 132.72C90.624 132.72 91.764 133.033 92.6306 133.66C93.4973 134.273 93.9506 135.167 93.9906 136.34H91.1506C91.0973 135.98 90.9106 135.68 90.5906 135.44C90.2706 135.187 89.7973 135.06 89.1706 135.06C88.6773 135.06 88.284 135.153 87.9906 135.34C87.6973 135.527 87.5506 135.78 87.5506 136.1C87.5506 136.407 87.6773 136.64 87.9306 136.8C88.184 136.96 88.5973 137.073 89.1706 137.14L90.0306 137.22C91.3773 137.367 92.424 137.74 93.1706 138.34C93.9173 138.94 94.2906 139.747 94.2906 140.76C94.2906 141.493 94.0906 142.133 93.6906 142.68C93.2906 143.213 92.724 143.627 91.9906 143.92C91.2573 144.2 90.3973 144.34 89.4106 144.34ZM100.944 144.14C99.8372 144.14 98.9439 144.007 98.2639 143.74C97.5839 143.46 97.0839 143 96.7639 142.36C96.4572 141.707 96.3039 140.827 96.3039 139.72V130.08H99.2839V139.84C99.2839 140.36 99.4172 140.76 99.6839 141.04C99.9639 141.307 100.357 141.44 100.864 141.44H102.484V144.14H100.944ZM94.6439 135.38V133.04H102.484V135.38H94.6439ZM103.736 144V140.42H107.256V144H103.736ZM113.905 144.38C112.798 144.38 111.838 144.173 111.025 143.76C110.225 143.333 109.605 142.72 109.165 141.92C108.738 141.12 108.525 140.147 108.525 139V138.26H111.765V139.18C111.765 139.82 111.951 140.34 112.325 140.74C112.711 141.127 113.238 141.32 113.905 141.32C114.558 141.32 115.071 141.127 115.445 140.74C115.831 140.34 116.025 139.82 116.025 139.18V131.86H119.305V139C119.305 140.147 119.085 141.12 118.645 141.92C118.218 142.72 117.598 143.333 116.785 143.76C115.985 144.173 115.025 144.38 113.905 144.38ZM110.225 132.26V129.4H119.305V132.26H110.225ZM125.916 144.34C124.356 144.34 123.136 144.02 122.256 143.38C121.376 142.74 120.909 141.84 120.856 140.68H123.696C123.749 141.027 123.956 141.34 124.316 141.62C124.689 141.887 125.243 142.02 125.976 142.02C126.536 142.02 126.996 141.927 127.356 141.74C127.729 141.54 127.916 141.26 127.916 140.9C127.916 140.58 127.776 140.327 127.496 140.14C127.216 139.94 126.716 139.8 125.996 139.72L125.136 139.64C123.816 139.507 122.823 139.14 122.156 138.54C121.503 137.94 121.176 137.173 121.176 136.24C121.176 135.467 121.369 134.82 121.756 134.3C122.143 133.78 122.676 133.387 123.356 133.12C124.049 132.853 124.836 132.72 125.716 132.72C127.129 132.72 128.269 133.033 129.136 133.66C130.003 134.273 130.456 135.167 130.496 136.34H127.656C127.603 135.98 127.416 135.68 127.096 135.44C126.776 135.187 126.303 135.06 125.676 135.06C125.183 135.06 124.789 135.153 124.496 135.34C124.203 135.527 124.056 135.78 124.056 136.1C124.056 136.407 124.183 136.64 124.436 136.8C124.689 136.96 125.103 137.073 125.676 137.14L126.536 137.22C127.883 137.367 128.929 137.74 129.676 138.34C130.423 138.94 130.796 139.747 130.796 140.76C130.796 141.493 130.596 142.133 130.196 142.68C129.796 143.213 129.229 143.627 128.496 143.92C127.763 144.2 126.903 144.34 125.916 144.34Z" fill="black"/>
</svg>
