<svg width="186" height="186" viewBox="0 0 186 186" fill="none" xmlns="http://www.w3.org/2000/svg">
<rect x="1" y="1" width="184" height="184" rx="3" fill="black"/>
<rect x="1" y="1" width="184" height="184" rx="3" stroke="black" stroke-width="2"/>
<path d="M65 93V37H121V93H65Z" fill="white"/>
<path d="M101.615 78.9176C102.691 80.666 103.861 82.3414 106.339 82.3414C108.42 82.3414 109.512 81.3069 109.512 79.8758C109.512 78.1631 108.383 77.5549 106.093 76.5578L104.838 76.0227C101.215 74.4858 98.8054 72.56 98.8054 68.4923C98.8054 64.7434 101.675 61.8905 106.16 61.8905C109.354 61.8905 111.648 62.9965 113.303 65.8929L109.393 68.3927C108.532 66.8558 107.602 66.2507 106.16 66.2507C104.689 66.2507 103.757 67.1794 103.757 68.3927C103.757 69.8922 104.69 70.4989 106.845 71.4276L108.1 71.9627C112.37 73.7811 114.778 75.6385 114.778 79.8136C114.778 84.3122 111.225 86.7778 106.456 86.7778C101.791 86.7778 99.1414 84.4367 97.6667 81.5387L101.615 78.9176ZM83.5921 79.0451C84.3792 80.4545 85.5754 81.5387 87.2958 81.5387C88.9416 81.5387 89.889 80.8885 89.889 78.3607V61.8889H95.0736V79.1571C95.0736 84.3947 92.0356 86.7778 87.5992 86.7778C83.5905 86.7778 80.6972 84.0618 79.5181 81.5387L83.5921 79.0451Z" fill="black"/>
<path d="M46.192 144.38C45.0854 144.38 44.1254 144.173 43.312 143.76C42.512 143.333 41.892 142.72 41.452 141.92C41.0254 141.12 40.812 140.147 40.812 139V138.26H44.052V139.18C44.052 139.82 44.2387 140.34 44.612 140.74C44.9987 141.127 45.5254 141.32 46.192 141.32C46.8454 141.32 47.3587 141.127 47.732 140.74C48.1187 140.34 48.312 139.82 48.312 139.18V131.86H51.592V139C51.592 140.147 51.372 141.12 50.932 141.92C50.5054 142.72 49.8854 143.333 49.072 143.76C48.272 144.173 47.312 144.38 46.192 144.38ZM42.512 132.26V129.4H51.592V132.26H42.512ZM60.6636 144V140.76H60.1236V137.24C60.1236 136.68 59.9903 136.26 59.7236 135.98C59.4569 135.7 59.0303 135.56 58.4436 135.56C58.1503 135.56 57.7636 135.567 57.2836 135.58C56.8036 135.593 56.3103 135.613 55.8036 135.64C55.2969 135.667 54.8369 135.693 54.4236 135.72V133.02C54.7303 132.993 55.0903 132.967 55.5036 132.94C55.9169 132.913 56.3436 132.893 56.7836 132.88C57.2236 132.867 57.6369 132.86 58.0236 132.86C59.1436 132.86 60.0836 133.02 60.8436 133.34C61.6169 133.66 62.2036 134.147 62.6036 134.8C63.0036 135.44 63.2036 136.267 63.2036 137.28V144H60.6636ZM57.1636 144.28C56.3769 144.28 55.6836 144.14 55.0836 143.86C54.4969 143.58 54.0369 143.18 53.7036 142.66C53.3703 142.127 53.2036 141.493 53.2036 140.76C53.2036 139.96 53.4103 139.307 53.8236 138.8C54.2369 138.28 54.8169 137.9 55.5636 137.66C56.3103 137.407 57.1703 137.28 58.1436 137.28H60.4836V139.06H58.1236C57.5636 139.06 57.1303 139.2 56.8236 139.48C56.5303 139.747 56.3836 140.113 56.3836 140.58C56.3836 141.02 56.5303 141.38 56.8236 141.66C57.1303 141.927 57.5636 142.06 58.1236 142.06C58.4836 142.06 58.8036 142 59.0836 141.88C59.3769 141.747 59.6169 141.527 59.8036 141.22C59.9903 140.913 60.0969 140.487 60.1236 139.94L60.8836 140.74C60.8169 141.5 60.6303 142.14 60.3236 142.66C60.0303 143.18 59.6169 143.58 59.0836 143.86C58.5636 144.14 57.9236 144.28 57.1636 144.28ZM67.4433 144L64.1633 133.04H67.4633L70.5433 144H67.4433ZM68.4433 144V141.34H71.6633V144H68.4433ZM69.6233 144L72.2833 133.04H75.3633L72.5233 144H69.6233ZM83.3011 144V140.76H82.7611V137.24C82.7611 136.68 82.6278 136.26 82.3611 135.98C82.0944 135.7 81.6678 135.56 81.0811 135.56C80.7878 135.56 80.4011 135.567 79.9211 135.58C79.4411 135.593 78.9478 135.613 78.4411 135.64C77.9344 135.667 77.4744 135.693 77.0611 135.72V133.02C77.3678 132.993 77.7278 132.967 78.1411 132.94C78.5544 132.913 78.9811 132.893 79.4211 132.88C79.8611 132.867 80.2744 132.86 80.6611 132.86C81.7811 132.86 82.7211 133.02 83.4811 133.34C84.2544 133.66 84.8411 134.147 85.2411 134.8C85.6411 135.44 85.8411 136.267 85.8411 137.28V144H83.3011ZM79.8011 144.28C79.0144 144.28 78.3211 144.14 77.7211 143.86C77.1344 143.58 76.6744 143.18 76.3411 142.66C76.0078 142.127 75.8411 141.493 75.8411 140.76C75.8411 139.96 76.0478 139.307 76.4611 138.8C76.8744 138.28 77.4544 137.9 78.2011 137.66C78.9478 137.407 79.8078 137.28 80.7811 137.28H83.1211V139.06H80.7611C80.2011 139.06 79.7678 139.2 79.4611 139.48C79.1678 139.747 79.0211 140.113 79.0211 140.58C79.0211 141.02 79.1678 141.38 79.4611 141.66C79.7678 141.927 80.2011 142.06 80.7611 142.06C81.1211 142.06 81.4411 142 81.7211 141.88C82.0144 141.747 82.2544 141.527 82.4411 141.22C82.6278 140.913 82.7344 140.487 82.7611 139.94L83.5211 140.74C83.4544 141.5 83.2678 142.14 82.9611 142.66C82.6678 143.18 82.2544 143.58 81.7211 143.86C81.2011 144.14 80.5611 144.28 79.8011 144.28ZM92.3161 144.34C90.7561 144.34 89.5361 144.02 88.6561 143.38C87.7761 142.74 87.3094 141.84 87.2561 140.68H90.0961C90.1494 141.027 90.3561 141.34 90.7161 141.62C91.0894 141.887 91.6428 142.02 92.3761 142.02C92.9361 142.02 93.3961 141.927 93.7561 141.74C94.1294 141.54 94.3161 141.26 94.3161 140.9C94.3161 140.58 94.1761 140.327 93.8961 140.14C93.6161 139.94 93.1161 139.8 92.3961 139.72L91.5361 139.64C90.2161 139.507 89.2228 139.14 88.5561 138.54C87.9028 137.94 87.5761 137.173 87.5761 136.24C87.5761 135.467 87.7694 134.82 88.1561 134.3C88.5428 133.78 89.0761 133.387 89.7561 133.12C90.4494 132.853 91.2361 132.72 92.1161 132.72C93.5294 132.72 94.6694 133.033 95.5361 133.66C96.4028 134.273 96.8561 135.167 96.8961 136.34H94.0561C94.0028 135.98 93.8161 135.68 93.4961 135.44C93.1761 135.187 92.7028 135.06 92.0761 135.06C91.5828 135.06 91.1894 135.153 90.8961 135.34C90.6028 135.527 90.4561 135.78 90.4561 136.1C90.4561 136.407 90.5828 136.64 90.8361 136.8C91.0894 136.96 91.5028 137.073 92.0761 137.14L92.9361 137.22C94.2828 137.367 95.3294 137.74 96.0761 138.34C96.8228 138.94 97.1961 139.747 97.1961 140.76C97.1961 141.493 96.9961 142.133 96.5961 142.68C96.1961 143.213 95.6294 143.627 94.8961 143.92C94.1628 144.2 93.3028 144.34 92.3161 144.34ZM103.789 144.38C102.843 144.38 102.016 144.227 101.309 143.92C100.616 143.6 100.036 143.173 99.5694 142.64C99.1027 142.107 98.756 141.507 98.5294 140.84C98.3027 140.16 98.1894 139.46 98.1894 138.74V138.36C98.1894 137.613 98.3094 136.9 98.5494 136.22C98.7894 135.527 99.1427 134.913 99.6094 134.38C100.076 133.847 100.656 133.427 101.349 133.12C102.056 132.813 102.863 132.66 103.769 132.66C104.756 132.66 105.629 132.853 106.389 133.24C107.149 133.613 107.756 134.14 108.209 134.82C108.663 135.5 108.916 136.28 108.969 137.16H105.829C105.776 136.667 105.576 136.253 105.229 135.92C104.896 135.573 104.409 135.4 103.769 135.4C103.236 135.4 102.789 135.533 102.429 135.8C102.083 136.067 101.823 136.433 101.649 136.9C101.476 137.367 101.389 137.92 101.389 138.56C101.389 139.147 101.469 139.68 101.629 140.16C101.789 140.627 102.043 140.993 102.389 141.26C102.749 141.513 103.216 141.64 103.789 141.64C104.216 141.64 104.576 141.567 104.869 141.42C105.176 141.26 105.416 141.047 105.589 140.78C105.776 140.5 105.889 140.18 105.929 139.82H109.049C109.009 140.727 108.756 141.527 108.289 142.22C107.823 142.9 107.203 143.433 106.429 143.82C105.656 144.193 104.776 144.38 103.789 144.38ZM110.696 144V133.04H113.236V137.74H113.176C113.176 136.193 113.503 135 114.156 134.16C114.823 133.32 115.783 132.9 117.036 132.9H117.456V135.66H116.656C115.776 135.66 115.096 135.9 114.616 136.38C114.136 136.847 113.896 137.527 113.896 138.42V144H110.696ZM119.234 144V133.04H122.434V144H119.234ZM117.774 135.4V133.04H122.434V135.4H117.774ZM120.474 131.96C119.874 131.96 119.427 131.807 119.134 131.5C118.854 131.18 118.714 130.78 118.714 130.3C118.714 129.807 118.854 129.407 119.134 129.1C119.427 128.78 119.874 128.62 120.474 128.62C121.074 128.62 121.514 128.78 121.794 129.1C122.087 129.407 122.234 129.807 122.234 130.3C122.234 130.78 122.087 131.18 121.794 131.5C121.514 131.807 121.074 131.96 120.474 131.96ZM124.994 148V133.04H127.534V137.78L127.194 137.76C127.247 136.667 127.474 135.747 127.874 135C128.274 134.24 128.814 133.673 129.494 133.3C130.174 132.913 130.94 132.72 131.794 132.72C132.554 132.72 133.24 132.86 133.854 133.14C134.48 133.42 135.014 133.813 135.454 134.32C135.907 134.813 136.247 135.4 136.474 136.08C136.714 136.747 136.834 137.48 136.834 138.28V138.74C136.834 139.527 136.72 140.267 136.494 140.96C136.267 141.64 135.934 142.233 135.494 142.74C135.067 143.247 134.54 143.647 133.914 143.94C133.3 144.22 132.594 144.36 131.794 144.36C130.967 144.36 130.22 144.193 129.554 143.86C128.9 143.513 128.374 142.993 127.974 142.3C127.574 141.593 127.354 140.7 127.314 139.62L128.194 140.82V148H124.994ZM130.894 141.68C131.44 141.68 131.914 141.547 132.314 141.28C132.727 141.013 133.047 140.64 133.274 140.16C133.5 139.68 133.614 139.127 133.614 138.5C133.614 137.873 133.5 137.327 133.274 136.86C133.047 136.393 132.734 136.033 132.334 135.78C131.934 135.513 131.454 135.38 130.894 135.38C130.414 135.38 129.96 135.493 129.534 135.72C129.107 135.947 128.76 136.273 128.494 136.7C128.24 137.113 128.114 137.62 128.114 138.22V138.96C128.114 139.533 128.247 140.027 128.514 140.44C128.794 140.84 129.147 141.147 129.574 141.36C130 141.573 130.44 141.68 130.894 141.68ZM143.636 144.14C142.529 144.14 141.636 144.007 140.956 143.74C140.276 143.46 139.776 143 139.456 142.36C139.149 141.707 138.996 140.827 138.996 139.72V130.08H141.976V139.84C141.976 140.36 142.109 140.76 142.376 141.04C142.656 141.307 143.049 141.44 143.556 141.44H145.176V144.14H143.636ZM137.336 135.38V133.04H145.176V135.38H137.336Z" fill="white"/>
</svg>
